<?xml version="1.0" encoding="utf-8"?>
<!-- Generator: Adobe Illustrator 26.4.1, SVG Export Plug-In . SVG Version: 6.00 Build 0)  -->
<svg version="1.1" id="LightMode" xmlns="http://www.w3.org/2000/svg" xmlns:xlink="http://www.w3.org/1999/xlink" x="0px" y="0px"
	 viewBox="0 0 1000 500" style="enable-background:new 0 0 910.3 500;" xml:space="preserve">
<style type="text/css">
	.st550{display:none;}
	.st551{fill:#919293;}
	.st552{fill:#FEFEFE;}
	.st553{fill:#402679;}
	.st554{fill:#FFC513;}
	.st55{fill:#1C1B1B;}
	.st56{font-family:'Georgia';}
	.st57{font-size:156.544px;}
	.st58{font-family:'Roboto';}
	.st59{font-size:177.5257px;}
	.st60{letter-spacing:3;}
</style>
<rect x="-83.53" y="-111.54" class="st550" width="1355.54" height="1203.16"/>
<g>
	<g>
		<path class="st551" d="M233.47,255.44c-0.66,11.42-6.11,20.42-14.45,27.81c-3.62,3.21-7.63,6.01-11.63,8.75
			c-2.96,2.03-4.64,4.27-5.16,8.12c-2.11,15.46-7.82,29.88-13.64,44.23c-9.74,23.97-21.9,46.82-32.79,70.25
			c-12.49,26.89-25.28,53.64-37.94,80.45c-0.45,0.95-0.85,1.92-1.37,2.84c-0.44,0.78-0.54,2.12-1.52,2.12
			c-0.93,0-1.05-1.31-1.41-2.09c-4.45-9.79-8.89-19.6-13.33-29.4c-9.53-21.03-19.04-42.07-28.64-63.07
			c-0.63-1.38-0.81-4.53-3.42-2.97c-1.97,1.18-4.62,2.7-3.55,6.17c1.74,5.63,4.49,10.93,5.42,16.82c1.15,7.34-2.85,13.99-8.92,14.74
			c-4.09,0.51-7.43-1.2-10.35-3.83c-3.46-3.12-6.16-6.85-7.89-11.17c-6.62-16.57-13.12-33.18-19.76-49.73
			c-0.72-1.8-0.41-3.3,0.14-4.92c3.58-10.54,8.99-20.1,15.74-28.9c1.6-2.08,1.87-3.87,1.11-6.4c-4.24-14.12-6.68-28.51-7.02-43.33
			c-0.54-24.05,8.95-43.84,25.91-59.92c18.37-17.41,37.67-33.85,56.46-50.82c2.48-2.24,3.96-2.12,6.43,0.17
			c17.7,16.42,35.57,32.66,53.4,48.94c2.94,2.69,9.29,1.54,11.32-1.95c0.58-0.99,0.13-1.75-0.22-2.58c-1.2-2.91-2.4-5.82-3.62-8.72
			c-3.06-7.25-0.44-14.55,6.47-17.99c7.63-3.8,14.98-1.81,18.98,5.22c7.39,13,14.73,26.04,22.09,39.06
			C232.42,247.09,233.43,251.11,233.47,255.44z M29.51,374.66c0.17,2.54,0.66,4.96,1.65,7.29c4.53,10.62,9.03,21.25,13.57,31.86
			c0.45,1.06,0.5,2.79,1.64,2.93c1.44,0.19,1.9-1.61,2.59-2.63c10.46-15.5,22.89-29.26,36.04-42.54
			c22.84-23.06,48.44-42.61,74.99-61.01c18.44-12.78,37.15-25.17,55.76-37.72c3.01-2.03,5.39-4.58,6.89-7.9
			c0.32-0.71,0.84-1.62,0.27-2.2c-0.74-0.74-1.33,0.36-1.93,0.66c-4.12,2.08-7.85,1.79-11.84-0.75c-4.49-2.86-6.93-7.04-8.99-11.62
			c-1.72-3.82-3.01-7.86-5.55-11.26c-1.54-2.07-3.06-3.63-6.2-2.17c-19.35,9-37.3,20.34-54.85,32.36
			c-21.34,14.63-41.17,31.18-61.05,47.72c-14.92,12.42-27.41,26.66-38.09,42.69C31.52,364.72,29.78,369.44,29.51,374.66z
			 M112.7,210.66c0.06,0,0.13,0,0.19,0c0-2.62,0.02-5.25-0.01-7.87c-0.01-1.2-0.1-2.51-1.26-3.12c-1.28-0.68-2.26,0.35-3.12,1.1
			c-15.2,13.31-31.34,25.63-45.18,40.36c-14.23,15.14-22.1,33.27-21.56,54.56c0.27,10.48,3.41,20.39,5.43,30.52
			c0.8,3.98,1.93,4.33,5.06,1.44c18.59-17.19,37.71-33.8,56.79-50.45c1.5-1.31,2.13-2.75,2.18-4.77
			C111.65,251.83,112.19,231.25,112.7,210.66z M111.26,409.38c0-15.22,0.02-30.45-0.03-45.67c0-1.63,0.51-4.56-2.72-2.29
			c-9.9,6.95-19.32,14.44-26.92,24c-2.6,3.27-2.93,6.41-1.25,10.19c8.65,19.4,17.17,38.87,25.77,58.29
			c0.63,1.43,1.39,2.84,2.32,4.08c1.13,1.5,2.25,1.3,2.66-0.6c0.24-1.14,0.17-2.35,0.17-3.53
			C111.26,439.04,111.26,424.21,111.26,409.38z M221.24,239.24c-0.33-0.69-0.71-1.53-1.13-2.34c-1.98-3.84-3.86-7.74-5.98-11.51
			c-3.27-5.82-6.63-11.6-10.12-17.3c-1.26-2.05-3.06-3.87-5.86-2.56c-3.64,1.7-7.64,3.04-9.34,7.24c-0.15,0.37,0.24,0.99,0.45,1.46
			c5.21,11.48,11.29,22.48,18.04,33.12c0.91,1.44,2.08,1.84,3.13,0.49c2.36-3.03,5.7-4.54,8.96-6.21
			C220.32,241.15,221.35,240.75,221.24,239.24z M65.39,428.06c-0.09-1.78-0.18-3.73-3.08-2.3c-2.29,1.13-4.62,0.87-6.83-0.18
			c-2.15-1.02-2.9-0.08-3.08,1.89c-0.32,3.5,2.54,6.64,6.16,6.76C62.51,434.38,65.38,431.86,65.39,428.06z M222.79,249.65
			c1.52,1.56,2.62,3.26,3.26,5.27c0.2,0.65,0.84,0.36,1.22-0.05c1.18-1.27,1.56-2.68,0.5-4.2c-1.03-1.49-2.41-2.34-4.3-1.87
			C223.21,248.88,223.05,249.32,222.79,249.65z M218.38,257.32c-0.65-1.75-1.29-3.44-1.92-5.12c-1.38,0.56-1.81,1.73-2.02,3.06
			c-0.27,1.76,0.51,2.7,2.26,2.88C217.47,258.22,218.31,258.46,218.38,257.32z"/>
		<path class="st551" d="M74.24,202.57c-0.1-1.57,0.7-2.81,1.41-4.05c3.42-6.05,6.74-12.16,10.84-17.79c1.34-1.84,2.47-3.72,1.7-6.17
			c-0.18-0.56-0.1-1.35,0.16-1.89c3.22-6.72,6.41-13.46,9.83-20.08c0.95-1.83,2.1-3.3,0.63-5.34c-1.11-1.54-0.77-3.24-0.16-4.9
			c3.02-8.11,6.05-16.21,9.06-24.32c0.57-1.53,1.34-2.78,2.96-3.44c8-3.29,15.97-6.66,23.96-9.96c0.95-0.39,2.2-1.03,2.99-0.72
			c7.03,2.7,12.8-0.88,18.68-3.62c7.31-3.41,7.49-3.42,9.01,4.43c0.62,3.21,1.03,6.47,1.69,9.67c0.48,2.32-0.49,3.04-2.48,2.34
			c-3.77-1.33-6.32,0.12-8.31,3.2c-0.07,0.11-0.13,0.24-0.23,0.32c-8.31,6.18-8.85,14.04-6.24,23.47
			c2.68,9.69,3.94,19.77,5.95,29.65c0.45,2.21,0.68,3.85-2.17,4.35c-2.11,0.37-1.19,1.97-0.89,3.13c2.04,7.86,4.15,15.7,6.18,23.57
			c0.3,1.17,1.29,2.71-0.34,3.47c-1.31,0.61-2.46-0.46-3.4-1.42c-4.12-4.23-8.23-8.46-12.34-12.69c-0.45-0.47-1.13-0.93-1.25-1.49
			c-0.98-4.64-3.85-6.97-8.43-8.01c-2.02-0.46-2.61-3.13-3.87-4.79c-4.54-5.96-10.15-6.63-15.9-1.88
			c-11.01,9.1-21.32,19.03-32.63,27.79c-1.25,0.96-2.46,2.21-4.19,1.15C75.03,205.65,74.44,204.19,74.24,202.57z M142.79,176.03
			c0.04,0.11,0.05,0.25,0.12,0.33c0.04,0.05,0.17,0.03,0.26,0.04c-0.12-0.13-0.24-0.26-0.36-0.39c0.15-4.03-1.83-7.6-2.44-11.46
			c-0.17-1.08-1.13-2.41,0.58-3c2.75-0.96,2.01-2.95,1.6-4.85c-1.63-7.55-3.21-15.11-4.98-22.63c-0.72-3.08-0.36-5.36,2.18-7.66
			c5.54-5,10.33-10.81,16.12-15.57c0.36-0.3,0.81-0.82,0.77-1.2c-0.07-0.88-0.93-0.76-1.54-0.76c-3.91-0.02-7.18,1.65-9.76,4.4
			c-1.79,1.91-3.53,1.8-5.61,0.99c-5.49-2.14-9.01-0.84-11.02,4.68c-0.99,2.72-2.42,4.38-5.01,5.47c-1.88,0.79-4.05,3.13-5.59,1.42
			c-1.72-1.9,1.26-3.11,2.4-4.52c0.48-0.6,1.15-1.25,0.56-2.07c-0.57-0.8-1.34-0.43-2.12-0.18c-5,1.59-10.48,11.01-8.72,15.78
			c1.1,2.97,0.87,5.51-0.2,8.32c-1.68,4.42-3.65,8.7-5.79,12.9c-1.05,2.06-2.24,3.83-0.92,6.52c0.92,1.88,0.14,4.32-1.14,6.35
			c-1.54,2.43-2.91,4.97-4.22,7.53c-0.37,0.73-1.3,1.77-0.4,2.49c1.07,0.86,1.9-0.3,2.64-0.95c4.82-4.25,9.63-8.51,14.41-12.8
			c2.02-1.81,3.8-4.31,6.78-1.21c0.42,0.44,1.8,0.22,2.62-0.06c1.99-0.66,3.29,0.22,4.43,1.64c1.48,1.84,2.88,3.74,4.41,5.54
			c0.91,1.07,1.78,2.82,3.32,2.43C139.14,172.78,140.77,174.78,142.79,176.03z"/>
		<path class="st551" d="M69.77,64.5c2.71,1.34,5.34,0.78,7.68-1.78c1.07-1.17,2.35-1.52,2.36,0.84c0,3.34,1.32,5.67,4.57,6.96
			c2.13,0.84,1.4,1.86-0.31,2.32c-3.28,0.88-5.03,2.89-5.22,6.32c-0.03,0.59-0.37,1.47-0.8,1.66c-0.9,0.39-1.34-0.61-1.7-1.2
			c-1.54-2.49-3.58-3.59-6.57-2.99c-2.24,0.45-3.63-0.35-1.83-2.6c2.09-2.6,1.66-4.95,0.16-7.53C67.4,65.26,66.87,63.85,69.77,64.5z
			"/>
		<path class="st551" d="M196.37,169.49c-2.64-0.86-4.01,1.23-5.57,3.03c-0.47,0.55-0.78,1.63-1.73,1.26
			c-0.39-0.15-0.61-1.08-0.66-1.67c-0.29-3.42-2.06-5.46-5.39-6.28c-1.61-0.39-2.13-1.46-0.4-2.23c3.44-1.53,4.99-3.89,4.5-7.68
			c-0.2-1.52,0.71-2.07,1.8-0.84c2.44,2.74,5.12,3.84,8.7,2.27c1.17-0.52,2.38,0.12,1.48,1.54c-2.02,3.2-1.67,5.94,0.53,8.93
			C200.8,169.38,200.46,169.63,196.37,169.49z"/>
		<path class="st551" d="M133.85,58.21c0.44,2.68-0.65,2.73-1.84,1.86c-2.69-1.95-5.21-2.44-8.16-0.36c-2,1.42-2.72-0.11-2.1-1.78
			c1.18-3.18-0.16-5.2-2.47-7.06c-0.56-0.45-1.46-0.97-1.13-1.86c0.33-0.88,1.34-0.63,2.06-0.66c3.02-0.13,5.23-1.28,6.15-4.37
			c0.21-0.71,0.54-1.61,1.43-1.67c0.98-0.06,1.27,0.89,1.44,1.59c0.84,3.4,3.26,4.44,6.41,4.53c0.61,0.02,1.43,0.14,1.76,0.53
			c0.53,0.65-0.21,1.25-0.7,1.57C133.52,52.6,132.33,55.27,133.85,58.21z"/>
		<path class="st551" d="M188.86,76.7c-2.9-0.88-4.2,0.99-5.57,2.8c-0.45,0.6-1.14,1.42-1.71,1.42c-0.96,0-0.91-1.13-0.93-1.86
			c-0.08-3.52-2.09-5.32-5.26-6.25c-1.9-0.56-2.09-1.57-0.17-2.35c3.02-1.22,4.44-3.39,4.49-6.57c0.03-2.16,0.89-2.73,2.44-1.03
			c2.11,2.33,4.52,2.8,7.4,1.77c1.69-0.61,2.87-0.05,1.85,1.77c-1.66,2.98-1.11,5.29,0.36,8.31
			C193.35,78.02,189.82,76.01,188.86,76.7z"/>
		<path class="st551" d="M49.57,103.64c2.18,4,5.97,4.29,10.2,3.65c0.5-0.08,0.31,1.18-0.06,1.67c-2.2,2.9-2.03,5.67,0.07,8.57
			c1.12,1.55,0.75,2.49-1.35,1.79c-3.17-1.05-5.77-0.56-7.88,2.3c-1.05,1.42-2.37,1.35-2.38-0.79c-0.03-3.73-2.21-5.55-5.38-6.72
			c-1.25-0.46-1.94-1.37-0.07-1.88c3.86-1.06,5.43-3.67,5.57-7.44C48.3,104.25,48.46,103.75,49.57,103.64z"/>
		<path class="st551" d="M50.1,157.39c3.34,1.72,6.45,1.26,9.09-1.97c0.81-0.99,1.7-0.63,1.68,0.74c-0.05,3.56,1.16,6.23,4.69,7.65
			c1.6,0.64,1.66,1.6-0.19,2.12c-3.27,0.93-5.49,2.61-5.55,6.45c-0.03,2.09-1.38,2.09-2.34,0.52c-1.81-2.96-4.29-3.85-7.6-3.21
			c-1.99,0.39-2.5-0.66-1.23-2.08c2.52-2.82,2.16-5.58,0.38-8.54C48.57,158.33,48.07,157.22,50.1,157.39z"/>
		<path class="st551" d="M217.22,112.87c-1.3,0.8-1.79,1.26-2.36,1.43c-3.33,0.96-4.82,3.19-4.87,6.6c-0.01,0.63,0.16,1.78-0.88,1.86
			c-0.48,0.04-1.17-0.56-1.5-1.05c-1.73-2.55-3.8-3.6-6.97-2.57c-2.31,0.75-3.47-0.37-1.83-2.52c2.08-2.74,1.21-5.05-0.37-7.48
			c-0.38-0.59-1.24-1.29-0.46-1.99c0.35-0.32,1.28-0.22,1.84-0.03c3.29,1.15,5.81,0.24,7.84-2.56c0.56-0.77,1.91-1.83,2.06,0.2
			c0.29,3.98,2,6.59,5.94,7.58C216.05,112.43,216.42,112.59,217.22,112.87z"/>
		<path class="st551" d="M255.6,111.62c1.44-0.02,2.69-0.04,2.69,1.37c0,1.32-1.26,1.4-2.66,1.4c-10.09,0-20.18,0.08-30.27,0.07
			c-1.07,0-2.68,0.45-2.7-1.36c-0.01-1.84,1.61-1.35,2.67-1.36"/>
		<path class="st551" d="M129.23,17.6c0,5.11,0.03,10.22-0.02,15.32c-0.01,1.07,0.44,2.67-1.38,2.67c-1.82,0-1.36-1.61-1.37-2.68
			c-0.03-10.09-0.03-20.17,0-30.26c0-1.07-0.47-2.66,1.38-2.66c1.85,0,1.36,1.6,1.37,2.67C129.25,7.64,129.22,12.62,129.23,17.6z"/>
		<path class="st551" d="M17.54,114.4c-4.98,0-9.97,0.02-14.95-0.01c-1.11-0.01-2.65,0.34-2.59-1.49c0.05-1.51,1.41-1.28,2.42-1.28
			c10.23,0.02,20.46,0.06,30.69,0.12c0.98,0.01,2.36-0.29,2.39,1.27c0.04,1.86-1.53,1.44-2.61,1.45
			c-5.11,0.04-10.23,0.02-15.34,0.02C17.54,114.45,17.54,114.43,17.54,114.4z"/>
		<path class="st551" d="M198.63,60.38c-0.59,0.45-1.44,0.51-2.02,0.04c-0.06-0.05-0.12-0.1-0.17-0.16c-0.73-0.84-0.09-1.36,0.55-1.89
			c2.3-1.93,4.57-3.89,6.87-5.82c5.7-4.78,11.39-9.57,17.13-14.31c0.79-0.65,1.65-2.16,2.91-0.78c1.33,1.45-0.37,2.08-1.13,2.72
			c-7.77,6.57-15.6,13.09-23.41,19.62C199.13,59.99,198.89,60.18,198.63,60.38z"/>
		<path class="st551" d="M13.96,191.85c-0.61,0.3-1.4,0.15-1.76-0.43c-0.04-0.06-0.07-0.13-0.1-0.2c-0.41-1.18,0.56-1.58,1.33-2.06
			c3.67-2.28,7.34-4.57,11.02-6.84c5.13-3.16,10.26-6.32,15.41-9.44c0.84-0.51,1.85-1.44,2.64,0.01c0.61,1.11-0.34,1.66-1.13,2.14
			c-8.92,5.5-17.84,10.99-26.77,16.47C14.4,191.62,14.19,191.73,13.96,191.85z"/>
		<path class="st551" d="M207.08,172.18c0.42,0.25,1.09,0.63,1.75,1.03c8.36,5.13,16.73,10.24,25.06,15.43
			c0.96,0.6,3.03,0.96,2.07,2.67c-1.21,2.16-2.52,0.04-3.48-0.53c-8.52-5.11-16.97-10.35-25.44-15.55
			c-0.75-0.46-1.83-0.75-1.64-1.91C205.49,172.7,205.95,172.13,207.08,172.18z"/>
		<path class="st551" d="M63.2,59.93c-0.98,1.95-2.06,0.83-3.05,0c-5.82-4.84-11.64-9.7-17.44-14.56c-2.2-1.84-4.4-3.7-6.57-5.58
			c-0.7-0.6-1.45-1.28-0.53-2.27c0.93-1,1.64-0.22,2.34,0.36c8.01,6.7,16.01,13.41,24.01,20.13C62.54,58.51,63.22,58.98,63.2,59.93z
			"/>
		<path class="st552" d="M29.51,374.66c0.27-5.22,2.02-9.95,4.92-14.3c10.69-16.03,23.17-30.27,38.09-42.69
			c19.88-16.54,39.7-33.09,61.05-47.72c17.54-12.02,35.5-23.36,54.85-32.36c3.14-1.46,4.66,0.1,6.2,2.17
			c2.54,3.4,3.83,7.44,5.55,11.26c2.06,4.58,4.49,8.75,8.99,11.62c3.99,2.55,7.72,2.83,11.84,0.75c0.6-0.3,1.19-1.4,1.93-0.66
			c0.57,0.58,0.05,1.49-0.27,2.2c-1.5,3.32-3.88,5.87-6.89,7.9c-18.6,12.55-37.32,24.94-55.76,37.72
			c-26.55,18.4-52.16,37.95-74.99,61.01c-13.15,13.28-25.58,27.04-36.04,42.54c-0.69,1.02-1.15,2.82-2.59,2.63
			c-1.14-0.15-1.19-1.88-1.64-2.93c-4.54-10.61-9.05-21.24-13.57-31.86C30.17,379.63,29.68,377.2,29.51,374.66z M128.2,326.1
			c-0.16,1.29,0.04,2.47,1.82,1.66c3.37-1.52,6.39-3.63,8.95-6.3c0.91-0.94,1.27-2.48-0.51-2.66c-6.08-0.64-7.28-6.18-10.28-9.89
			c-0.9-1.11-0.26-2.02,0.74-2.99c6.86-6.69,6.86-6.74,12.36,0.93c1.33,1.86,3.55,3.58,2.88,6.18c-1.02,4,1.36,3.06,3.19,2.26
			c2.89-1.27,5.38-3.25,7.49-5.64c1.61-1.82,1.31-3.17-1.24-3.35c-1.95-0.14-3.53-0.63-4.73-2.28
			c-5.57-7.62-10.89-15.39-13.88-24.45c-0.49-1.49-1.09-2.16-2.43-1.31c-3.21,2.02-6.47,4.07-8.9,7.01c-1.33,1.61-1.05,3.2,1.55,3.5
			c2.38,0.28,7.88,4.78,7.95,6.96c0.1,3.07-2.82,4.08-4.8,5.65c-0.81,0.64-1.78,1.08-2.7,1.58c-0.86,0.48-1.85,0.72-2.45-0.24
			c-2.03-3.27-6.18-5.69-4.2-10.64c0.48-1.21,0.09-3.11-1.83-2.09c-3.57,1.89-7.17,3.87-9.85,7.03c-1.16,1.37-1.2,2.95,1.01,3.01
			c2.79,0.07,4.28,1.77,5.7,3.65c4.5,5.96,8.94,11.97,13.41,17.96C128.45,322.96,129.13,324.32,128.2,326.1z M68.77,336.69
			c-3.32-0.1-6.55,0.29-9.65,1.53c-4.4,1.77-5.5,4.32-3.74,8.67c0.55,1.35,1.2,2.88,2.72,3.12c1.68,0.26,1.95-1.46,2.42-2.62
			c1.03-2.54,2.12-1.99,3.6-0.32c2.69,3.04,5.79,5.76,8.24,8.97c2.71,3.55,6.31,6.77,6.15,11.9c-0.05,1.63,0.99,2.14,2.33,1.23
			c2.94-1.99,5.51-4.42,7.78-7.15c0.61-0.74,0.96-1.68,0.39-2.55c-0.7-1.07-1.61-0.46-2.42-0.03c-1.34,0.72-2.57,1.1-3.87-0.23
			c-3.76-3.84-7.53-7.66-10.89-11.88c-1.23-1.54-0.56-2.01,0.89-2.29c0.9-0.17,1.82-0.3,2.73-0.31c7.87-0.13,14.88,2.39,21.31,6.81
			c0.79,0.54,1.59,2.07,2.96,0.61c1.23-1.31,0.59-2.38-0.28-3.46c-0.58-0.71-1.15-1.43-1.77-2.1c-5.59-6.08-11.21-12.14-16.77-18.25
			c-0.84-0.92-2.11-1.69-1.78-3.29c0.22-1.05,1.53-2.31,0.08-3.13c-1.31-0.75-2.49,0.36-3.49,1.21c-1.7,1.44-3.45,2.84-4.97,4.45
			c-1.1,1.16-0.6,2.67,0.95,2.31c5.09-1.18,6.35,3.1,8.8,5.71c0.42,0.44,1.17,1,0.6,1.62c-0.33,0.37-1.16,0.44-1.75,0.39
			C75.81,337.34,72.29,337,68.77,336.69z M155.89,276.26c0,0.18,0,0.35,0,0.53c-1.05,0-2.11,0.1-3.14-0.02
			c-2.12-0.26-3.88-1.18-4.01-3.56c-0.12-2.18,1.41-3.23,3.3-3.83c1.94-0.61,3.82-0.57,5.76,0.14c1.14,0.42,2.6,1.63,3.6,0.32
			c1.16-1.5-0.43-2.63-1.33-3.65c-0.95-1.07-2.02-2.07-3.15-2.94c-1.37-1.05-3.35-1.39-4.31-0.11c-1.84,2.44-4.54,3.49-6.79,5.23
			c-2.81,2.18-3.64,5.06-2.95,8.39c0.66,3.2,3.01,4.77,5.96,5.58c3.98,1.09,8.06,0.86,12.12,0.89c2.64,0.02,5.24,0.15,7.61,1.5
			c3.28,1.86,4.4,4.65,3.05,7.5c-1.83,3.85-4.29,4.37-7.6,1.64c-3.01-2.48-5.26-2.46-7.06,0.07c-1.71,2.4-1.08,5.16,1.68,7.09
			c2.02,1.42,4.28,2.05,6.7,1.43c6.13-1.56,9.98-5.52,11.62-11.57c2.04-7.54-2.69-14.17-10.45-14.59
			C162.96,276.1,159.42,276.26,155.89,276.26z M117.17,333.02c-1.55,0.58-2.43-0.28-3.22-1.14c-5.42-5.87-10.66-11.89-15.38-18.35
			c-0.59-0.81-1.51-1.66-0.88-2.77c0.73-1.3,2.04-0.84,3.19-0.74c1.51,0.13,3.48,1.82,4.35,0.37c0.97-1.6-0.91-3.3-1.84-4.82
			c-0.54-0.88-1.25-1.68-1.97-2.43c-1.49-1.53-2.65-2.15-4.02,0.45c-2.6,4.92-6.74,8.63-11.97,10.21c-4.57,1.38-4.34,3.58-2.58,6.75
			c0.94,1.68,0.54,4.78,3.38,4.62c3.41-0.2,1.46-3.29,2.04-5.02c0.33-0.99,0.25-2.29,1.24-2.75c1.43-0.67,2.07,0.83,2.76,1.63
			c5.13,5.95,10.16,11.99,15.27,17.96c1.02,1.19,1.59,2.29,0.55,3.78c-0.49,0.7-1.09,1.53-0.15,2.45c1.03,1.01,1.97,0.36,2.85-0.12
			c3.01-1.64,5.71-3.71,8.08-6.18c0.94-0.98,2.59-1.98,1.68-3.59C119.74,331.9,118.22,332.86,117.17,333.02z"/>
		<path class="st553" d="M112.7,210.66c-0.51,20.59-1.04,41.17-1.49,61.76c-0.04,2.01-0.68,3.46-2.18,4.77
			c-19.08,16.65-38.2,33.25-56.79,50.45c-3.13,2.89-4.26,2.55-5.06-1.44c-2.02-10.13-5.17-20.03-5.43-30.52
			c-0.54-21.29,7.33-39.42,21.56-54.56c13.84-14.72,29.98-27.05,45.18-40.36c0.86-0.75,1.84-1.78,3.12-1.1
			c1.16,0.62,1.25,1.93,1.26,3.12c0.02,2.62,0.01,5.25,0.01,7.87C112.82,210.66,112.76,210.66,112.7,210.66z"/>
		<path class="st554" d="M120.88,409.43c0-14.18-0.03-28.36,0.02-42.53c0.02-5.11,0.37-10.23,0.32-15.34
			c-0.03-2.53,1.58-3.74,3.15-5.11c16.19-14.15,34.39-25.37,52.77-36.33c3.27-1.95,6.63-3.74,9.88-5.71
			c2.42-1.46,3.12-0.75,3.14,1.91c0.06,8.44-2.32,16.34-5.27,24.07c-5.67,14.85-13.38,28.77-20.01,43.19
			c-13.06,28.36-26.38,56.59-39.66,84.85c-0.83,1.76-1.16,4.98-3.58,4.46c-2.76-0.59-1.63-3.72-1.63-5.82"/>
		<path class="st554" d="M120.68,242.19c0-13.38-0.01-26.76,0.01-40.14c0-1.83-0.13-3.92,1.99-4.72c2.1-0.79,3.78,0.42,5.26,1.84
			c12.09,11.66,24.19,23.31,36.25,35c3.38,3.28,3.18,5.19-0.79,7.75c-12.68,8.17-25.39,16.3-38.11,24.41
			c-3.6,2.29-5.38,1.38-5.44-2.88"/>
		<path class="st553" d="M111.26,409.38c0,14.83,0,29.66-0.01,44.49c0,1.18,0.07,2.39-0.17,3.53c-0.4,1.9-1.53,2.1-2.66,0.6
			c-0.93-1.24-1.69-2.66-2.32-4.08c-8.6-19.43-17.12-38.89-25.77-58.29c-1.69-3.78-1.35-6.93,1.25-10.19
			c7.6-9.56,17.02-17.06,26.92-24c3.23-2.27,2.72,0.66,2.72,2.29C111.27,378.93,111.26,394.15,111.26,409.38z"/>
		<path class="st552" d="M221.24,239.24c0.12,1.51-0.92,1.91-1.85,2.38c-3.26,1.67-6.6,3.18-8.96,6.21c-1.06,1.36-2.22,0.95-3.13-0.49
			c-6.75-10.64-12.82-21.64-18.04-33.12c-0.21-0.47-0.6-1.09-0.45-1.46c1.7-4.19,5.7-5.54,9.34-7.24c2.79-1.3,4.6,0.51,5.86,2.56
			c3.49,5.7,6.85,11.48,10.12,17.3c2.12,3.77,4,7.66,5.98,11.51C220.53,237.71,220.9,238.55,221.24,239.24z"/>
		<path class="st552" d="M65.39,428.06c-0.01,3.81-2.88,6.32-6.83,6.18c-3.62-0.13-6.48-3.26-6.16-6.76c0.18-1.97,0.93-2.91,3.08-1.89
			c2.21,1.05,4.54,1.31,6.83,0.18C65.22,424.33,65.3,426.28,65.39,428.06z"/>
		<path class="st552" d="M222.79,249.65c0.26-0.33,0.42-0.78,0.69-0.85c1.89-0.48,3.26,0.38,4.3,1.87c1.05,1.52,0.68,2.92-0.5,4.2
			c-0.39,0.42-1.02,0.7-1.22,0.05C225.41,252.91,224.31,251.22,222.79,249.65z"/>
		<path class="st552" d="M218.38,257.32c-0.07,1.15-0.92,0.9-1.68,0.82c-1.75-0.18-2.52-1.12-2.26-2.88c0.2-1.33,0.64-2.51,2.02-3.06
			C217.1,253.88,217.73,255.57,218.38,257.32z"/>
		<path class="st552" d="M142.79,176.03c-2.03-1.25-3.65-3.25-6.6-2.49c-1.54,0.4-2.41-1.36-3.32-2.43c-1.53-1.79-2.93-3.7-4.41-5.54
			c-1.14-1.42-2.44-2.3-4.43-1.64c-0.82,0.27-2.21,0.49-2.62,0.06c-2.98-3.11-4.76-0.61-6.78,1.21c-4.78,4.29-9.59,8.55-14.41,12.8
			c-0.74,0.65-1.57,1.81-2.64,0.95c-0.9-0.72,0.03-1.76,0.4-2.49c1.31-2.56,2.68-5.1,4.22-7.53c1.28-2.02,2.06-4.46,1.14-6.35
			c-1.32-2.69-0.13-4.46,0.92-6.52c2.14-4.21,4.11-8.48,5.79-12.9c1.07-2.81,1.3-5.35,0.2-8.32c-1.76-4.77,3.72-14.19,8.72-15.78
			c0.78-0.25,1.55-0.62,2.12,0.18c0.59,0.82-0.08,1.48-0.56,2.07c-1.14,1.41-4.12,2.61-2.4,4.52c1.55,1.71,3.72-0.62,5.59-1.42
			c2.58-1.09,4.02-2.75,5.01-5.47c2-5.52,5.53-6.82,11.02-4.68c2.08,0.81,3.82,0.92,5.61-0.99c2.58-2.75,5.85-4.42,9.76-4.4
			c0.6,0,1.46-0.12,1.54,0.76c0.03,0.38-0.41,0.91-0.77,1.2c-5.8,4.76-10.58,10.57-16.12,15.57c-2.54,2.3-2.91,4.58-2.18,7.66
			c1.77,7.52,3.35,15.08,4.98,22.63c0.41,1.9,1.15,3.89-1.6,4.85c-1.71,0.59-0.75,1.92-0.58,3c0.61,3.86,2.59,7.44,2.44,11.46
			L142.79,176.03z"/>
		<path class="st552" d="M142.82,176.01c0.12,0.13,0.24,0.26,0.36,0.39c-0.09-0.01-0.22,0.01-0.26-0.04
			c-0.07-0.09-0.73-0.72-0.86-0.83C142.05,175.54,142.82,176.01,142.82,176.01z"/>
		<path class="st55" d="M128.2,326.1c0.93-1.77,0.25-3.14-0.74-4.46c-4.47-5.99-8.91-12-13.41-17.96c-1.42-1.88-2.91-3.58-5.7-3.65
			c-2.21-0.05-2.17-1.64-1.01-3.01c2.68-3.16,6.28-5.14,9.85-7.03c1.93-1.02,2.32,0.88,1.83,2.09c-1.98,4.96,2.17,7.37,4.2,10.64
			c0.6,0.97,1.58,0.72,2.45,0.24c0.91-0.51,1.89-0.94,2.7-1.58c1.98-1.57,4.9-2.58,4.8-5.65c-0.07-2.18-5.57-6.69-7.95-6.96
			c-2.6-0.3-2.88-1.89-1.55-3.5c2.43-2.95,5.69-5,8.9-7.01c1.34-0.84,1.94-0.18,2.43,1.31c2.99,9.07,8.31,16.83,13.88,24.45
			c1.2,1.65,2.78,2.14,4.73,2.28c2.55,0.18,2.85,1.53,1.24,3.35c-2.11,2.38-4.59,4.36-7.49,5.64c-1.82,0.8-4.21,1.74-3.19-2.26
			c0.66-2.59-1.55-4.32-2.88-6.18c-5.49-7.67-5.5-7.62-12.36-0.93c-1,0.98-1.64,1.88-0.74,2.99c3,3.71,4.2,9.25,10.28,9.89
			c1.78,0.19,1.42,1.72,0.51,2.66c-2.56,2.67-5.58,4.78-8.95,6.3C128.24,328.57,128.04,327.39,128.2,326.1z"/>
		<path class="st55" d="M68.77,336.69c3.52,0.31,7.05,0.65,10.58,0.92c0.59,0.04,1.42-0.03,1.75-0.39c0.56-0.63-0.19-1.18-0.6-1.62
			c-2.45-2.6-3.71-6.89-8.8-5.71c-1.56,0.36-2.05-1.15-0.95-2.31c1.53-1.61,3.28-3.01,4.97-4.45c1-0.85,2.18-1.95,3.49-1.21
			c1.45,0.83,0.14,2.08-0.08,3.13c-0.33,1.61,0.94,2.37,1.78,3.29c5.57,6.11,11.18,12.17,16.77,18.25c0.62,0.68,1.2,1.39,1.77,2.1
			c0.87,1.08,1.51,2.14,0.28,3.46c-1.37,1.46-2.17-0.06-2.96-0.61c-6.43-4.42-13.44-6.94-21.31-6.81c-0.91,0.02-1.83,0.14-2.73,0.31
			c-1.45,0.28-2.12,0.75-0.89,2.29c3.36,4.22,7.13,8.04,10.89,11.88c1.3,1.33,2.52,0.95,3.87,0.23c0.8-0.43,1.71-1.04,2.42,0.03
			c0.57,0.87,0.22,1.81-0.39,2.55c-2.27,2.73-4.84,5.16-7.78,7.15c-1.34,0.91-2.38,0.39-2.33-1.23c0.16-5.13-3.43-8.35-6.15-11.9
			c-2.45-3.21-5.55-5.93-8.24-8.97c-1.48-1.67-2.57-2.22-3.6,0.32c-0.47,1.16-0.75,2.88-2.42,2.62c-1.52-0.24-2.17-1.76-2.72-3.12
			c-1.76-4.35-0.66-6.9,3.74-8.67C62.21,336.97,65.44,336.58,68.77,336.69z"/>
		<path class="st55" d="M155.89,276.26c3.53,0,7.07-0.16,10.59,0.03c7.77,0.42,12.49,7.04,10.45,14.59
			c-1.64,6.05-5.49,10.01-11.62,11.57c-2.42,0.62-4.68-0.01-6.7-1.43c-2.75-1.93-3.38-4.69-1.68-7.09c1.8-2.53,4.06-2.55,7.06-0.07
			c3.32,2.74,5.77,2.21,7.6-1.64c1.35-2.85,0.23-5.64-3.05-7.5c-2.37-1.34-4.97-1.48-7.61-1.5c-4.06-0.03-8.14,0.2-12.12-0.89
			c-2.95-0.81-5.3-2.38-5.96-5.58c-0.69-3.33,0.14-6.21,2.95-8.39c2.25-1.74,4.96-2.79,6.79-5.23c0.97-1.28,2.94-0.94,4.31,0.11
			c1.14,0.87,2.21,1.87,3.15,2.94c0.9,1.02,2.49,2.15,1.33,3.65c-1,1.3-2.46,0.09-3.6-0.32c-1.94-0.71-3.83-0.75-5.76-0.14
			c-1.89,0.6-3.42,1.65-3.3,3.83c0.13,2.37,2.31,3.03,4.36,3.04"/>
		<path class="st55" d="M117.17,333.02c1.06-0.17,2.57-1.13,3.38,0.31c0.91,1.61-0.74,2.61-1.68,3.59c-2.37,2.47-5.08,4.54-8.08,6.18
			c-0.88,0.48-1.82,1.13-2.85,0.12c-0.94-0.92-0.34-1.74,0.15-2.45c1.05-1.49,0.47-2.59-0.55-3.78
			c-5.1-5.98-10.14-12.01-15.27-17.96c-0.69-0.8-1.32-2.3-2.76-1.63c-0.99,0.46-0.91,1.76-1.24,2.75c-0.58,1.74,1.37,4.83-2.04,5.02
			c-2.84,0.16-2.45-2.93-3.38-4.62c-1.76-3.17-1.99-5.37,2.58-6.75c5.23-1.58,9.37-5.28,11.97-10.21c1.37-2.6,2.53-1.98,4.02-0.45
			c0.73,0.74,1.43,1.54,1.97,2.43c0.93,1.52,2.81,3.22,1.84,4.82c-0.87,1.44-2.84-0.24-4.35-0.37c-1.15-0.1-2.46-0.55-3.19,0.74
			c-0.63,1.11,0.29,1.96,0.88,2.77c4.72,6.46,9.96,12.48,15.38,18.35C114.74,332.74,115.62,333.61,117.17,333.02z"/>
	</g>
	<text transform="matrix(1 0 0 1 308.1376 233.7009)"><tspan x="0" y="0" class="st553 st56 st57">NTHS</tspan><tspan x="0" y="159.77" class="st554 st58 st59 st60">Whitney</tspan></text>
</g>
</svg>
